<svg xmlns="http://www.w3.org/2000/svg" viewBox="0 0 26.16 6.35"><defs><style>.cls-1{fill:#161c13;}</style></defs><g id="图层_2" data-name="图层 2"><g id="图层_1-2" data-name="图层 1"><path class="cls-1" d="M2,4.61V.76h.25V.13H2V0H1.37V.13h-1V.76h.1V5.41a1,1,0,0,1-.1.51A1,1,0,0,1,0,6.35c.46-.12,1.08-.47,1.12-.94V.76h.25V6.35H2V6a1,1,0,0,1,.15-.48.78.78,0,0,1,.38-.24.74.74,0,0,1-.39-.16A.56.56,0,0,1,2,4.61Z"/><path class="cls-1" d="M6.93,4.1h5.79a.46.46,0,0,0,.48-.42V3.5A.54.54,0,0,0,12.65,3H6.93Zm5.13-.65h.46a0,0,0,0,1,.05,0v.14h-.51Zm-3.35,0h2.72v.19H8.71Zm-1.14,0h.5v.19h-.5Z"/><path class="cls-1" d="M13,5.85a1.56,1.56,0,0,0,.25-.75V5a.64.64,0,0,0-.63-.63H7.26a.3.3,0,0,0-.34.17.26.26,0,0,0,0,.19.31.31,0,0,0,.34.15h5.17c.09,0,.13,0,.13.12v.1a.88.88,0,0,1-.15.44A6.55,6.55,0,0,0,10,5.15a12.21,12.21,0,0,0-2.45.33,18,18,0,0,1,2-.07,8.9,8.9,0,0,1,2.32.43h-5a2.06,2.06,0,0,1-.68-.25,2.3,2.3,0,0,0,.53-1.45v-2A1.15,1.15,0,0,0,5.59,1H4.93V.76H7.11V.89h.63V.76h4.63V.89H13V.76h.2V.13H13V0h-.63V.13H7.74V0H7.11V.13H4.93V0H4.29V.13H2.51V.76H4.29V1H2.88a.39.39,0,0,0-.39.21.31.31,0,0,0,0,.25.39.39,0,0,0,.4.2H5.59c.32,0,.49.2.5.48v2a1.73,1.73,0,0,1-.45,1.12A2.16,2.16,0,0,0,5,4.88a2.33,2.33,0,0,0-1-.12,3.15,3.15,0,0,0-1.4.47,4.34,4.34,0,0,1,1-.13,2.31,2.31,0,0,1,1.52.51,1.14,1.14,0,0,1-.56.1H2.54a.38.38,0,0,0-.35.2.41.41,0,0,0,0,.26.35.35,0,0,0,.36.18h2A2.33,2.33,0,0,0,5.66,6a2.72,2.72,0,0,0,1.22.31h5.05a1.12,1.12,0,0,0,.64-.15,1.45,1.45,0,0,0,.66.15A.85.85,0,0,0,13,5.85Z"/><path class="cls-1" d="M13.15,2.26V1.63A.6.6,0,0,0,12.52,1H7V2.82h5.59A.56.56,0,0,0,13.15,2.26Zm-.63,0a.09.09,0,0,1-.08.09H7.57V1.51h4.82c.09,0,.13,0,.13.12Z"/><path class="cls-1" d="M19.53.13v0h-6V.13a.21.21,0,0,1-.18.2V1A1.09,1.09,0,0,0,13.8.84a.75.75,0,0,1,.38-.13h4.73a.75.75,0,0,1,.38.13,1.14,1.14,0,0,0,.44.13V.33A.21.21,0,0,1,19.53.13Z"/><path class="cls-1" d="M24.63.08H21.46a1.48,1.48,0,0,0-1.41,1.55V2.89a1.48,1.48,0,0,0,1.41,1.55h3.35a1,1,0,0,0,1-.92V1.23A1.22,1.22,0,0,0,24.63.08Zm.46,3.42a.3.3,0,0,1-.28.31H22a1.49,1.49,0,0,1-1.42-1.55h0A1.49,1.49,0,0,1,22,.71h2.59a.5.5,0,0,1,.46.51Z"/><path class="cls-1" d="M18.4,5.37a3.32,3.32,0,0,0-1.46-.52A3.19,3.19,0,0,0,15.71,5l-1.31.51a5.51,5.51,0,0,1,3.32.3,2.85,2.85,0,0,1,.39.18,3.82,3.82,0,0,0,.81.33,4.89,4.89,0,0,0,1,0h2.39a.6.6,0,0,0,.61-.59v-.4a.64.64,0,0,0-.66-.66H19.93l.2.19a1.46,1.46,0,0,0,1.06.44h1.09a.19.19,0,0,1,.13.17.19.19,0,0,1-.11.2H19.93a3.28,3.28,0,0,1-.61,0,2.9,2.9,0,0,1-.74-.2.91.91,0,0,0,.82-.18.83.83,0,0,0,.26-.61,1.14,1.14,0,0,0-1.2.4.6.6,0,0,0-.06.27"/><path class="cls-1" d="M18.43,1.12h-1.2V1h-.72v.13H14.65a1.12,1.12,0,0,0-1.17,1.06V6.35H15a2,2,0,0,1-.89-1.62V2.82a1.12,1.12,0,0,1,1.16-1.07h2.42A1.12,1.12,0,0,1,18.9,2.82a1.12,1.12,0,0,1-1.17,1.07H16.64c-.21,0-.24-.07-.26-.14s0-.11.11-.19A16.33,16.33,0,0,1,18.6,2.51H14.82l-.34.21h1.88c.06,0,.23,0,.3.1a.24.24,0,0,1,0,.13,10.3,10.3,0,0,1-2.2,1.57h3.95a1.12,1.12,0,0,0,1.16-1.07V2.18A1.12,1.12,0,0,0,18.43,1.12Z"/><path class="cls-1" d="M23.79,6.22a.32.32,0,0,0,.32.13h1.44a.61.61,0,0,0,.61-.59v-.4a.65.65,0,0,0-.66-.66H23.16l.2.19a1.45,1.45,0,0,0,1.05.44H25.5a.21.21,0,0,1,.14.17.19.19,0,0,1-.12.2H24.1a.37.37,0,0,0-.3.16A.32.32,0,0,0,23.79,6.22Z"/><path class="cls-1" d="M23.65,5.71a1.24,1.24,0,0,0-.14-.43,1.2,1.2,0,0,0-.35-.4V6.35h.5Z"/><path class="cls-1" d="M8.12,1.9a3.31,3.31,0,0,1,1.11-.21c.61,0,.91.17,1.65.23a6.1,6.1,0,0,0,1,0,2.56,2.56,0,0,1-.56.21,5.56,5.56,0,0,1-2-.16A6.79,6.79,0,0,0,8.12,1.9Z"/></g></g></svg>